<svg width="50" height="50" viewBox="0 0 50 50" fill="none" xmlns="http://www.w3.org/2000/svg">
<path d="M32.2917 29.1667H30.6459L30.0626 28.6042C31.3646 27.0916 32.3161 25.31 32.8491 23.3867C33.3822 21.4635 33.4835 19.4462 33.1459 17.4792C32.1667 11.6875 27.3334 7.06251 21.5001 6.35418C19.4493 6.09473 17.3663 6.30787 15.4105 6.97728C13.4548 7.64669 11.6781 8.75463 10.2164 10.2163C8.75469 11.678 7.64675 13.4547 6.97734 15.4105C6.30793 17.3662 6.09479 19.4492 6.35424 21.5C7.06257 27.3333 11.6876 32.1667 17.4792 33.1458C19.4462 33.4834 21.4635 33.3821 23.3868 32.8491C25.31 32.316 27.0917 31.3645 28.6042 30.0625L29.1667 30.6458V32.2917L38.0209 41.1458C38.8751 42 40.2709 42 41.1251 41.1458C41.9792 40.2917 41.9792 38.8958 41.1251 38.0417L32.2917 29.1667ZM19.7917 29.1667C14.6042 29.1667 10.4167 24.9792 10.4167 19.7917C10.4167 14.6042 14.6042 10.4167 19.7917 10.4167C24.9792 10.4167 29.1667 14.6042 29.1667 19.7917C29.1667 24.9792 24.9792 29.1667 19.7917 29.1667Z" fill="#DDEFE8"/>
</svg>
